<svg xmlns="http://www.w3.org/2000/svg" viewBox="0 0 1440 320" preserveAspectRatio="none">
  <defs>
    <linearGradient id="g" x1="0" x2="1">
      <stop offset="0" stop-color="#061227" />
      <stop offset="1" stop-color="#0b1830" />
    </linearGradient>
  </defs>
  <path fill="url(#g)" d="M0,64L48,74.7C96,85,192,107,288,117.3C384,128,480,128,576,138.7C672,149,768,171,864,186.7C960,203,1056,213,1152,197.3C1248,181,1344,139,1392,117.3L1440,96L1440,320L1392,320C1344,320,1248,320,1152,320C1056,320,960,320,864,320C768,320,672,320,576,320C480,320,384,320,288,320C192,320,96,320,48,320L0,320Z"></path>
</svg>
